<svg xmlns="http://www.w3.org/2000/svg" width="523.089" height="373.321" viewBox="697.5 266.14 523.089 373.321"><g data-name="Group"><path d="M965.547 359.446H852.183a3.105 3.105 0 0 1-3.1-3.1V290.32a3.105 3.105 0 0 1 3.1-3.1h113.364a3.105 3.105 0 0 1 3.1 3.1v66.024a3.105 3.105 0 0 1-3.1 3.101Z" stroke-linejoin="round" stroke-linecap="round" stroke="#c0ccd8" fill="transparent" data-name="Path 825"/><path d="M849.092 300.31h119.556" stroke-linejoin="round" stroke-linecap="round" stroke="#c0ccd8" fill="transparent" data-name="Path 826"/><path d="M856.811 295.76a1.913 1.913 0 1 0 0-3.825 1.913 1.913 0 0 0 0 3.826Z" stroke-linejoin="round" stroke-linecap="round" stroke="#c0ccd8" fill="transparent" data-name="Path 827"/><path d="M866.578 293.848c0 1.053-.86 1.913-1.912 1.913a1.917 1.917 0 0 1-1.913-1.913c0-1.053.86-1.913 1.913-1.913 1.062 0 1.912.85 1.912 1.913Z" stroke-linejoin="round" stroke-linecap="round" stroke="#c0ccd8" fill="transparent" data-name="Path 828"/><path d="M874.443 293.848c0 1.053-.86 1.913-1.913 1.913a1.917 1.917 0 0 1-1.913-1.913c0-1.053.86-1.913 1.913-1.913 1.062 0 1.913.85 1.913 1.913Z" stroke-linejoin="round" stroke-linecap="round" stroke="#c0ccd8" fill="transparent" data-name="Path 829"/><path d="M786.372 367.001h28.269a4.944 4.944 0 0 0 4.946-4.946v-28.269a4.944 4.944 0 0 0-4.946-4.946h-28.269a4.944 4.944 0 0 0-4.946 4.946v28.269a4.944 4.944 0 0 0 4.946 4.946Z" stroke-linejoin="round" stroke-linecap="round" stroke="#c0ccd8" fill="transparent" data-name="Path 830"/><path d="M799.506 357.847c6.035 0 10.927-4.892 10.927-10.926 0-6.035-4.892-10.927-10.927-10.927-6.034 0-10.926 4.892-10.926 10.927 0 6.034 4.892 10.926 10.926 10.926Z" stroke-linejoin="round" stroke-linecap="round" stroke-width="3" stroke="#c0ccd8" fill="transparent" data-name="Path 831"/><path d="m806.887 339.201-15.438 15.43" stroke-linejoin="round" stroke-linecap="round" stroke-width="3" stroke="#c0ccd8" fill="transparent" data-name="Path 832"/><g data-name="Path 833"><path d="m1072.591 358.316-7.912-8.202H942.862c-5.7 0-10.318-4.618-10.318-10.318v-63.338c0-5.7 4.618-10.318 10.318-10.318h122.358c5.7 0 10.318 4.618 10.318 10.318v80.67c.01 1.545-1.874 2.299-2.947 1.188Z" fill="#fff" fill-rule="evenodd"/><path d="m1072.591 358.316-7.912-8.202H942.862c-5.7 0-10.318-4.618-10.318-10.318v-63.338c0-5.7 4.618-10.318 10.318-10.318h122.358c5.7 0 10.318 4.618 10.318 10.318v80.67c.01 1.545-1.874 2.299-2.947 1.188Z" stroke-linejoin="round" stroke-linecap="round" stroke="#c0ccd8" fill="transparent"/></g><path d="M982.007 322.297h-5.237v9.207h-12.694v-9.207H945.1v-9.439l19.786-28.935h11.883v28.771h5.237v9.603Zm-17.931-9.603v-5.536c0-1.043.038-2.444.116-4.212.077-1.768.135-2.695.183-2.782h-.357a34.233 34.233 0 0 1-2.503 4.685l-5.275 7.845h7.836Z" fill="#f76652" fill-rule="evenodd" data-name="Path 834"/><path d="M1021.665 307.786c0 8.415-1.41 14.588-4.231 18.501-2.821 3.913-7.14 5.874-12.956 5.874-5.68 0-9.97-2.048-12.859-6.135-2.888-4.086-4.328-10.173-4.328-18.24 0-8.463 1.41-14.665 4.232-18.617 2.82-3.951 7.14-5.922 12.955-5.922 5.662 0 9.942 2.058 12.84 6.164 2.898 4.115 4.347 10.23 4.347 18.375Zm-21.582 0c0 5.381.338 9.082 1.004 11.1.677 2.02 1.797 3.025 3.382 3.025 1.603 0 2.734-1.044 3.4-3.12.657-2.088.995-5.75.995-11.005 0-5.275-.338-8.965-1.004-11.081-.677-2.116-1.807-3.169-3.382-3.169-1.584 0-2.714 1.024-3.381 3.063-.676 2.028-1.014 5.758-1.014 11.187Z" fill="#f76652" fill-rule="evenodd" data-name="Path 835"/><path d="M1063.99 322.297h-5.236v9.207h-12.694v-9.207h-18.975v-9.439l19.786-28.935h11.883v28.771h5.236v9.603Zm-17.93-9.603v-5.536c0-1.043.038-2.444.116-4.212.077-1.768.135-2.695.173-2.782h-.357a34.236 34.236 0 0 1-2.502 4.685l-5.275 7.845h7.845Z" fill="#f76652" fill-rule="evenodd" data-name="Path 836"/><path d="M1187.374 478.113h28.269a4.944 4.944 0 0 0 4.946-4.946v-28.268a4.944 4.944 0 0 0-4.946-4.947h-28.269a4.944 4.944 0 0 0-4.946 4.947v28.268a4.95 4.95 0 0 0 4.946 4.946Z" stroke-linejoin="round" stroke-linecap="round" stroke="#c0ccd8" fill="transparent" data-name="Path 837"/><path d="M1214.317 470.247c-.145.048-.3.077-.454.077l-23.69.01c-.492 0-.956-.27-1.207-.696a1.378 1.378 0 0 1 0-1.391l11.835-20.52a1.4 1.4 0 0 1 1.198-.696c.493 0 .956.261 1.208.696l11.854 20.51c.251.425.251.957 0 1.391a1.37 1.37 0 0 1-.744.619Zm-23.496-1.681 22.385-.01-11.197-19.38-11.188 19.39Z" fill="#c0ccd8" fill-rule="evenodd" data-name="Path 838"/><path d="M1202.009 464.489a.847.847 0 0 1-.84-.802l-.484-8.077a1.31 1.31 0 0 1 1.314-1.372 1.31 1.31 0 0 1 1.314 1.372l-.473 8.077a.819.819 0 0 1-.831.802Z" fill="#c0ccd8" fill-rule="evenodd" data-name="Path 839"/><path d="M1202.868 466.44a.851.851 0 0 1-1.7 0c0-.463.387-.85.85-.85.464 0 .85.377.85.85Z" fill="#c0ccd8" fill-rule="evenodd" data-name="Path 840"/><path d="M701.809 409.925a2.156 2.156 0 0 1-2.155 2.155 2.156 2.156 0 0 1-2.154-2.155c0-1.188.966-2.154 2.154-2.154a2.15 2.15 0 0 1 2.155 2.154Z" stroke-linejoin="round" stroke-linecap="round" stroke="#c0ccd8" fill="transparent" data-name="Path 841"/><path d="M1063.49 524.709a2.156 2.156 0 0 1-2.154 2.154 2.156 2.156 0 0 1-2.154-2.154c0-1.189.966-2.155 2.154-2.155s2.155.966 2.155 2.155Z" stroke-linejoin="round" stroke-linecap="round" stroke="#c0ccd8" fill="transparent" data-name="Path 842"/><path d="M1211.43 347.92a2.156 2.156 0 0 1-2.154 2.155 2.156 2.156 0 0 1-2.154-2.154c0-1.189.966-2.155 2.154-2.155s2.155.966 2.155 2.155Z" stroke-linejoin="round" stroke-linecap="round" stroke="#c0ccd8" fill="transparent" data-name="Path 843"/><path d="M1095.227 281.337a2.156 2.156 0 0 1-2.154 2.154 2.156 2.156 0 0 1-2.155-2.154c0-1.189.966-2.155 2.155-2.155 1.188 0 2.154.966 2.154 2.155Z" stroke-linejoin="round" stroke-linecap="round" stroke="#c0ccd8" fill="transparent" data-name="Path 844"/><path d="M1207.122 418.33v6.667" stroke-linejoin="round" stroke-linecap="round" stroke="#c0ccd8" fill="transparent" data-name="Path 845"/><path d="M1210.455 421.664h-6.666" stroke-linejoin="round" stroke-linecap="round" stroke="#c0ccd8" fill="transparent" data-name="Path 846"/><path d="M1032.855 546.755v6.666" stroke-linejoin="round" stroke-linecap="round" stroke="#c0ccd8" fill="transparent" data-name="Path 847"/><path d="M1036.188 550.088h-6.675" stroke-linejoin="round" stroke-linecap="round" stroke="#c0ccd8" fill="transparent" data-name="Path 848"/><path d="M891.862 269.038v6.666" stroke-linejoin="round" stroke-linecap="round" stroke="#c0ccd8" fill="transparent" data-name="Path 849"/><path d="M895.195 272.371h-6.667" stroke-linejoin="round" stroke-linecap="round" stroke="#c0ccd8" fill="transparent" data-name="Path 850"/><path d="M742.627 333.477v6.666" stroke-linejoin="round" stroke-linecap="round" stroke="#c0ccd8" fill="transparent" data-name="Path 851"/><path d="M745.96 336.81h-6.666" stroke-linejoin="round" stroke-linecap="round" stroke="#c0ccd8" fill="transparent" data-name="Path 852"/><path d="M731.777 486.963v6.666" stroke-linejoin="round" stroke-linecap="round" stroke="#c0ccd8" fill="transparent" data-name="Path 853"/><path d="M735.11 490.296h-6.666" stroke-linejoin="round" stroke-linecap="round" stroke="#c0ccd8" fill="transparent" data-name="Path 854"/><path d="M1109.67 306.784v6.666" stroke-linejoin="round" stroke-linecap="round" stroke="#c0ccd8" fill="transparent" data-name="Path 855"/><path d="M1113.004 310.117h-6.667" stroke-linejoin="round" stroke-linecap="round" stroke="#c0ccd8" fill="transparent" data-name="Path 856"/><path d="M781.377 449.004h-66.71a2.105 2.105 0 0 1-2.105-2.106c0-1.169.946-2.106 2.106-2.106h66.71c1.168 0 2.106.947 2.106 2.106a2.105 2.105 0 0 1-2.107 2.106Z" stroke-linejoin="round" stroke-linecap="round" stroke="#c0ccd8" fill="transparent" data-name="Path 857"/><path d="M1174.158 395.733h-66.71a2.105 2.105 0 0 1-2.106-2.106c0-1.169.947-2.106 2.106-2.106h66.71c1.17 0 2.106.947 2.106 2.106a2.093 2.093 0 0 1-2.106 2.106Z" stroke-linejoin="round" stroke-linecap="round" stroke="#c0ccd8" fill="transparent" data-name="Path 858"/><path d="M1184.425 410.425h-24.664c-.58 0-1.053-.473-1.053-1.053s.473-1.053 1.053-1.053h24.664c.58 0 1.053.474 1.053 1.053 0 .58-.473 1.053-1.053 1.053Z" fill="#c0ccd8" fill-rule="evenodd" data-name="Path 859"/><path d="M1119.165 360.15H1094.5c-.58 0-1.053-.474-1.053-1.054 0-.58.473-1.053 1.053-1.053h24.665c.58 0 1.053.473 1.053 1.053s-.473 1.053-1.053 1.053Z" fill="#c0ccd8" fill-rule="evenodd" data-name="Path 860"/><path d="M757.077 430.859H738.22c-.58 0-1.053-.474-1.053-1.053 0-.58.473-1.054 1.053-1.054h18.868c.58 0 1.053.474 1.053 1.054 0 .58-.473 1.053-1.063 1.053Z" fill="#c0ccd8" fill-rule="evenodd" data-name="Path 861"/><path d="M1137.33 337.245h20.424a3.579 3.579 0 0 0 3.574-3.574v-20.424a3.579 3.579 0 0 0-3.574-3.575h-20.424a3.579 3.579 0 0 0-3.574 3.575v20.424a3.579 3.579 0 0 0 3.574 3.574Z" stroke-linejoin="round" stroke-linecap="round" stroke="#c0ccd8" fill="transparent" data-name="Path 862"/><path d="m1151.955 322.8-.483 2.366h2.637v2.107h-3.034l-.782 4.144h-2.241l.792-4.144h-2.899l-.772 4.144h-2.194l.754-4.144h-2.425v-2.107h2.83l.484-2.367h-2.57v-2.135h2.947l.782-4.154h2.232l-.783 4.154h2.947l.792-4.154h2.193l-.792 4.154h2.454v2.135h-2.87Zm-5.623 2.366h2.917l.484-2.367h-2.918l-.483 2.367Z" fill="#c0ccd8" fill-rule="evenodd" data-name="Path 863"/><path d="m915.867 528.493-19.37-127.033h-87.24l20.907 134.617c1.42 9.12 9.023 15.545 18.414 15.545H995.27l1.082-12.337H928.61c-6.512 0-11.777-4.464-12.743-10.792Z" fill="#475577" fill-rule="evenodd" data-name="Path 864"/><path d="m833.303 528.493-18.655-122.338c-.425-2.753-2.715-4.705-5.555-4.705h-.174c-3.97 0-7.227 3.72-6.628 7.584l19.738 127.034c1.42 9.12 9.023 15.544 18.414 15.544h94.476L936 539.275h-89.964c-6.502.01-11.768-4.454-12.734-10.782Z" fill="#717a91" fill-rule="evenodd" data-name="Path 865"/><path d="M891.612 550.872v69.338" stroke-linejoin="round" stroke-linecap="round" stroke-width="1.5" stroke="#544943" fill="transparent" data-name="Path 866"/><path d="M852.735 626.335a6.127 6.127 0 0 1 6.125-6.125h65.493a6.127 6.127 0 0 1 6.125 6.125" stroke-linejoin="round" stroke-linecap="round" stroke-width="1.5" stroke="#544943" fill="transparent" data-name="Path 867"/><path d="M884.907 626.335a6.127 6.127 0 0 1 6.125-6.125" stroke-linejoin="round" stroke-linecap="round" stroke-width="1.5" stroke="#544943" fill="transparent" data-name="Path 868"/><path d="M859.668 633.268a6.183 6.183 0 1 1-12.366 0 6.183 6.183 0 1 1 12.366 0Z" fill="#717a91" fill-rule="evenodd" data-name="Path 869"/><g data-name="Group 594"><path d="M855.756 633.268a2.268 2.268 0 0 1-2.27 2.27 2.268 2.268 0 0 1-2.271-2.27 2.268 2.268 0 0 1 2.27-2.27 2.274 2.274 0 0 1 2.27 2.27Z" fill="#8e9db2" fill-rule="evenodd" data-name="Path 870"/></g><path d="M891.84 633.268a6.183 6.183 0 1 1-12.366 0 6.183 6.183 0 1 1 12.366 0Z" fill="#717a91" fill-rule="evenodd" data-name="Path 871"/><g data-name="Group 595"><path d="M887.927 633.268a2.268 2.268 0 0 1-2.27 2.27 2.268 2.268 0 0 1-2.27-2.27 2.268 2.268 0 0 1 2.27-2.27 2.274 2.274 0 0 1 2.27 2.27Z" fill="#8e9db2" fill-rule="evenodd" data-name="Path 872"/></g><path d="M937.411 633.268a6.183 6.183 0 1 1-12.366 0 6.183 6.183 0 1 1 12.366 0Z" fill="#717a91" fill-rule="evenodd" data-name="Path 873"/><g data-name="Group 596"><path d="M933.498 633.268a2.268 2.268 0 0 1-2.27 2.27 2.268 2.268 0 0 1-2.27-2.27 2.268 2.268 0 0 1 2.27-2.27 2.274 2.274 0 0 1 2.27 2.27Z" fill="#8e9db2" fill-rule="evenodd" data-name="Path 874"/></g><path d="m960.54 415.092 22.114-33.031 6.85 1.43c-5.237 17.63-8.695 24.606-8.695 24.606" fill="#ffcbbb" fill-rule="evenodd" data-name="Path 875"/><path d="m985.977 388.959 3.527-5.469s6.56-1.507 8.946-2.724c2.386-1.217 3.97-3.372 4.637-5.198.512-1.4.29-5.497-.309-5.565-1.41-.154-4.222 5.102-5.546 5.41-1.313.31-5.593-.009-7.94.3-3.952.522-5.624 4.222-5.624 4.222l-3.613 6.56" fill="#ffcbbb" fill-rule="evenodd" data-name="Path 876"/><path d="m974.993 391.731 3.883-5.622 10.038 4.502-3.188 8.55" fill="#e6e8ef" fill-rule="evenodd" data-name="Path 877"/><path d="M894.323 379.954s16.375-7.535 30.79 5.295c14.424 12.83 24.181 24.742 29.476 28.606l21.727-24.993 12.135 5.7c-3.198 18.095-12.183 46.962-34.152 49.938-23.776 3.217-58.643-26.095-58.643-26.095" fill="#b9b5b2" fill-rule="evenodd" data-name="Path 878"/><path d="m947.036 421.664 7.053-8.309" stroke-linejoin="round" stroke-linecap="round" stroke="#846a6a" fill="transparent" data-name="Path 879"/><path d="m982.267 629.007-1.835 7.062c-.444 1.71.85 3.391 2.618 3.391h21.39a2.33 2.33 0 0 0 .705-4.55l-14.617-5.903" fill="#173789" fill-rule="evenodd" data-name="Path 880"/><path d="M969.94 518.736c-3.42 35.89 12.327 110.271 12.327 110.271s3.74 4.522 8.26 0c0 0 3.797-70.922 7.787-102.803" fill="#ffcbbb" fill-rule="evenodd" data-name="Path 881"/><path d="m918.92 476.7 24.549 12.879v.25s50.092-3.361 57.676 14.521c11.864 28.008 13.883 119.092 13.883 119.092h-36.664s-13.65-76.506-18.307-81.172c-4.667-4.666-23.902-4.318-59.28-4.318-39.737 0-20.337-51.233-5.546-55.629" fill="#fca32d" fill-rule="evenodd" data-name="Path 882"/><path d="M980.396 622.933s-10.898-78.95-18.907-84.737c-9.777-7.072-55.957-2.454-55.957-2.454" stroke-linejoin="round" stroke-linecap="round" stroke="#ce680d" fill="transparent" data-name="Path 883"/><path d="m905.385 629.007-1.836 7.062c-.444 1.71.85 3.391 2.618 3.391h21.39a2.33 2.33 0 0 0 .705-4.55l-14.617-5.903" fill="#173789" fill-rule="evenodd" data-name="Path 884"/><path d="M908.95 518.736c-3.42 35.89-3.565 110.271-3.565 110.271s3.738 4.522 8.26 0c0 0 12.868-70.922 16.868-102.803" fill="#ffcbbb" fill-rule="evenodd" data-name="Path 885"/><path d="M875.619 487.965s64.39 1.034 72.815 20.55c10.357 23.988-6.714 114.918-6.714 114.918h-38.809v-81.346c0-1.575-1.236-2.995-2.811-2.947-5.372.145-17.37.145-32.596.145-39.736 0-20.337-61.84-5.546-66.236" fill="#ffb548" fill-rule="evenodd" data-name="Path 886"/><path d="M875.119 487.465s64.39 1.034 72.815 20.55c2.812 6.501 4.27 17.573 3.517 30.77" stroke-linejoin="round" stroke-linecap="round" stroke="#ce680d" fill="transparent" data-name="Path 887"/><path d="M907.812 622.933s.396-81.656-1.478-86.022c-2.609-6.058-11.507-3.082-32.143-3.082-39.736 0-23.544-56.885-8.753-61.28" stroke-linejoin="round" stroke-linecap="round" stroke="#ed841b" fill="transparent" data-name="Path 888"/><path d="M850.377 497.406s20.404.493 23.486-2.598c3.082-3.092 0-17.1 0-17.1" stroke-linejoin="round" stroke-linecap="round" stroke="#ed841b" fill="transparent" data-name="Path 889"/><path d="M849.874 500.15s23.293.493 26.82-2.599c3.526-3.091 0-17.129 0-17.129" stroke-linejoin="round" stroke-linecap="round" stroke="#ed841b" fill="transparent" data-name="Path 890"/><path d="M846.442 402.967s-4.888 86.853 2.512 86.853 89.684-.251 94.505-.251c4.82 0-6.463-74.274-22.713-89.964 0 0-24.105-26.153-34.722-23.65-10.627 2.512-39.582 27.012-39.582 27.012Z" fill="#b9b5b2" fill-rule="evenodd" data-name="Path 891"/><path d="m937.742 441.971-10.221-41.88" stroke-linejoin="round" stroke-linecap="round" stroke="#846a6a" fill="transparent" data-name="Path 892"/><path d="m804.823 418.695-22.115-33.03-6.85 1.429c5.237 17.631 8.696 24.607 8.696 24.607" fill="#ffcbbb" fill-rule="evenodd" data-name="Path 893"/><path d="m779.385 392.562-3.526-5.468s-6.56-1.507-8.946-2.724c-2.387-1.218-3.971-3.372-4.638-5.198-.512-1.401-.29-5.497.31-5.565 1.41-.155 4.221 5.101 5.545 5.41 1.314.31 5.584-.01 7.941.3 3.952.521 5.623 4.222 5.623 4.222l3.613 6.56" fill="#ffcbbb" fill-rule="evenodd" data-name="Path 894"/><path d="m790.37 395.335-3.884-5.623-10.038 4.502 3.188 8.55" fill="#e6e8ef" fill-rule="evenodd" data-name="Path 895"/><path d="M876.855 380.457s-16.182-11.507-32.886 2.628c-15.573 13.168-25.95 39.745-29.427 39.745-2.416 0-17.4-19.11-26.346-30.8l-10.637 5.691c6.705 20.472 21.322 55.3 43.195 55.3 17.158 0 52.401-40.2 52.401-40.2" fill="#b9b5b2" fill-rule="evenodd" data-name="Path 896"/><path d="m844.532 439.653 26.085-21.748" stroke-linejoin="round" stroke-linecap="round" stroke="#846a6a" fill="transparent" data-name="Path 897"/><path d="m878.41 382.505 15.546 16.656 2.038-19.255" fill="#e6e8ef" fill-rule="evenodd" data-name="Path 898"/><path d="m877.91 382.005 15.546 16.656 2.038-19.255" stroke-linejoin="round" stroke-linecap="round" stroke="#846a6a" fill="transparent" data-name="Path 899"/><path d="m890.893 365.685 4.376 9.584s1.759 5.487-5.526 7.98c-7.99 2.724-12.888-2.802-12.888-2.802l-1.15-15.042" fill="#ffcbbb" fill-rule="evenodd" data-name="Path 900"/><path d="M876.43 374.979s5.758 7.207 13.313 8.28l-5.487 8.144c-4.444-2.502-9.883-12.221-9.883-12.221l2.057-4.203Z" fill="#fff" fill-rule="evenodd" data-name="Path 901"/><path d="M894.815 373.955s-.917 5.15-5.072 9.294l6.251 4.724c1.44-3.536 1.275-9.043 1.275-9.043l-2.454-4.975Z" fill="#fff" fill-rule="evenodd" data-name="Path 902"/><path d="M897.376 350.208s4.125 15.805-2.068 19.805c-6.202 4-16.984-2.087-17.602-4.067-.619-1.98-3.44-18.859.608-20.124 7.188-2.251 16.955-2.348 19.062 4.386Z" fill="#ffcbbb" fill-rule="evenodd" data-name="Path 903"/><path d="M897.24 355.338a.795.795 0 0 1-.599.966.795.795 0 0 1-.966-.599.795.795 0 0 1 .6-.966.795.795 0 0 1 .965.599Z" fill="#173789" fill-rule="evenodd" data-name="Path 904"/><path d="M895.859 350.633c.27.039 1.488.164 1.227.763-.116.27-.541.261-.773.242-.251-.01-.502-.049-.734.029a.793.793 0 0 1 .154.241c.078.184-.521.203-.59.203-.598 0-1.313-.106-2.038.377.474-1.71 2.32-1.923 2.754-1.855Z" fill="#173789" fill-rule="evenodd" data-name="Path 905"/><path d="M887.309 357.531a.816.816 0 0 0 .85.763.816.816 0 0 0 .763-.85.816.816 0 0 0-.85-.763.803.803 0 0 0-.763.85Z" fill="#173789" fill-rule="evenodd" data-name="Path 906"/><path d="M884.922 354.333c-.58.31-1.072.734-.937 1.218.107.386.483.29.725.096.396-.309.84-.55 1.324-.705a.879.879 0 0 0-.32.724c1.508-.144 2.822-1.449 2.986-2.956-.01.106-.985.705-1.13.773-.86.406-1.807.396-2.648.85Z" fill="#173789" fill-rule="evenodd" data-name="Path 907"/><path d="M892.731 355.785s2.203 5.545 1.42 6.028c-.782.483-3.545.416-3.545.416" stroke-linejoin="round" stroke-linecap="round" stroke="#ef977f" fill="transparent" data-name="Path 908"/><path d="M892.808 370.431s-6.28 2.425-11.796-1.98" stroke-linejoin="round" stroke-linecap="round" stroke="#ef977f" fill="transparent" data-name="Path 909"/><path d="M889.243 366.721s.56-2.444 4.58-2.444" stroke-linejoin="round" stroke-linecap="round" stroke="#ef977f" fill="transparent" data-name="Path 910"/><path d="M900.873 341.726c-.068-.754-.184-1.556-.705-2.097-.59-.628-1.546-.753-2.406-.763a14.563 14.563 0 0 0-8.521 2.715c.676-.59 1.343-1.17 2.02-1.759.53-.463 1.728-1.198 1.149-2.067-.503-.763-1.942-.329-2.676-.338-3.459-.039-6.792 1.188-9.98 2.415-1.575.599-3.15 1.217-4.57 2.116-1.42.898-2.686 2.125-3.372 3.661-.599 1.343-.715 2.86-.705 4.328.02 2.648.435 5.275.85 7.894.454 2.85 1.14 8.472 4.966 8.82.744.068 1.556.116 2.164-.328.6-.435.802-1.218.899-1.952a10.061 10.061 0 0 0-.223-3.565c.715.387 1.401 1.044 2.203.918.27-.039.541-.184.628-.435.058-.164.039-.338.02-.512-.3-2.734-.464-5.449-.638-8.192 3.922-.831 7.864-1.546 11.835-2.145 1.758-.261 3.623-.55 4.985-1.69 1.961-1.624 2.29-4.493 2.077-7.024Z" fill="#173789" fill-rule="evenodd" data-name="Path 911"/><path d="M880.604 361.869c-.647-1.604-1.787-3.546-3.575-2.454-.628.386-.985 1.208-1.227 2.01-.82 2.656 1.092 6.753 3.69 6.366 1.267-.183 1.972-1.69 2.494-2.937" fill="#ffcbbb" fill-rule="evenodd" data-name="Path 912"/><path d="M1117.455 534.454c-.01-8.608 3.671-17.148 9.931-23.051a31.617 31.617 0 0 1 10.763-6.618c2.241-.83 12.994-1.642 12.994-1.642s-1.256 8.202-3.391 12.337c-4.995 9.642-14.868 17.747-30.297 18.974Z" fill="#8ebca2" fill-rule="evenodd" data-name="Path 913"/><path d="M1149.066 558.945c3.884-4.763 9.506-8.086 15.554-9.197 6.048-1.111 12.482 0 17.806 3.072.174.097.357.222.405.415.058.232-.106.455-.27.628-4.995 5.594-12.743 8.608-20.201 7.865-3.276-.329-10.154-1.768-13.294-2.783Z" fill="#a2ccb6" fill-rule="evenodd" data-name="Path 914"/><path d="M1157.703 545.864c.01-7.507 2.502-14.24 6.908-18.646 4.405-4.405 10.685-6.453 17.38-5.661.222.029.464.067.637.27.213.242.223.58.203.86-.376 9.033-4.907 16.51-11.815 19.516-3.024 1.313-9.922 3.207-13.313 3.661Z" fill="#8ebca2" fill-rule="evenodd" data-name="Path 915"/><path d="M1169.354 532.445a63.037 63.037 0 0 1 10.724-13.004c1.662-1.536 3.42-3.005 5.42-4.077 6.463-3.468 14.433-2.396 21.38-.048-2.763 5.246-6.367 10.385-11.67 13.042-2.348 1.179-4.918 1.816-7.478 2.386-5.092 1.13-13.207 1.025-18.376 1.7Z" fill="#a2ccb6" fill-rule="evenodd" data-name="Path 916"/><path d="M1165.664 519.914c-12.927-6.772-14.84-20.896-15.168-26.123-.203-3.275.01-6.917 2.734-9.275 16.028 5.642 20.114 16.482 12.434 35.398Z" fill="#8ebca2" fill-rule="evenodd" data-name="Path 917"/><path d="M1109.948 517.876c1.005-6.879 1.932-14.27-1.198-20.482-1.12-2.222-2.714-4.183-4.453-5.97-4.203-4.328-9.71-7.903-15.738-7.913-1.082 6.444.222 13.265 3.623 18.85 3.39 5.583 8.84 9.892 15.061 11.892" fill="#8ebca2" fill-rule="evenodd" data-name="Path 918"/><path d="M1147.55 562.868c-7.208-2.406-13.333-7.894-16.512-14.801-3.178-6.898-3.381-15.12-.531-22.163.126-.309.29-.657.618-.763.31-.097.628.058.908.222 11.15 6.415 18.772 25.061 15.516 37.505Z" fill="#a2ccb6" fill-rule="evenodd" data-name="Path 919"/><path d="M1117.242 524.87c-2.077-6.018-1.97-12.762.31-18.713 2.28-5.942 6.704-11.043 12.27-14.124 2.27-1.256 4.733-2.203 6.752-3.846a62.736 62.736 0 0 1 1.372 9.188c.232 3.053.222 6.174-.59 9.13-2.096 7.642-9.139 12.84-16.21 16.404" fill="#a2ccb6" fill-rule="evenodd" data-name="Path 920"/><path d="M1107.9 523.711c-11.613 1.41-25.901-3.275-32.113-14.211 19.853-10.096 32.113 5.342 32.113 14.211Z" fill="#a2ccb6" fill-rule="evenodd" data-name="Path 921"/><path d="M1114.682 549.612c-2.599-8.917-9.458-16.23-17.709-18.897-8.25-2.676-17.67-.628-24.345 5.285-.28.242-.58.56-.551.947.02.232.145.435.27.618 4.435 6.415 11.516 10.202 18.753 11.796 7.236 1.594 14.713 1.218 22.085.667" fill="#a2ccb6" fill-rule="evenodd" data-name="Path 922"/><path d="M1099.756 502.08c4.53 4.454 7.816 9.97 10.327 15.777 2.677 6.202 4.618 12.743 6.29 19.273 3.565 13.883 5.594 28.095 7.023 42.335.802 8 1.334 16.028 2.242 24.018.029.26.425.27.415 0-.309-7.256-.956-14.511-1.671-21.738-.705-7.188-1.536-14.366-2.628-21.505-1.092-7.16-2.444-14.28-4.203-21.313-1.642-6.579-3.555-13.168-6.154-19.438-2.695-6.511-6.25-12.762-11.438-17.612-.145-.116-.338.077-.203.203Z" fill="#597f6e" fill-rule="evenodd" data-name="Path 923"/><path d="M1121.107 557.1c-3.42-5.662-8.82-9.526-14.656-12.415-6.463-3.197-13.41-5.439-20.54-6.54-3.912-.609-7.98-1.015-11.94-.696-.223.02-.232.348 0 .358 3.584.174 7.139.28 10.694.782 3.44.483 6.84 1.227 10.164 2.213a71.413 71.413 0 0 1 9.922 3.748c2.956 1.382 5.864 2.927 8.482 4.889 2.937 2.202 5.362 4.898 7.458 7.902.174.242.57.02.416-.241Z" fill="#597f6e" fill-rule="evenodd" data-name="Path 924"/><path d="M1117.59 540.145c.039-5.343-.54-10.656-.067-15.99.444-4.965 1.748-9.95 3.874-14.462 1.169-2.493 2.666-4.734 4.24-6.985.107-.155-.125-.328-.25-.193-1.672 1.748-2.995 3.913-4.077 6.067-1.111 2.193-1.99 4.502-2.686 6.86-1.469 4.984-1.923 10.105-1.807 15.283.068 3.14.223 6.309.56 9.439.01.126.213.126.213-.02Z" fill="#597f6e" fill-rule="evenodd" data-name="Path 925"/><path d="M1090.645 513.229c3.536.367 6.783 2.357 9.633 4.367 3.4 2.405 6.492 5.217 9.545 8.038 1.565 1.449 3.091 2.966 4.743 4.318.155.126.367-.077.222-.222-2.869-2.879-5.95-5.623-9.042-8.25-3.053-2.6-6.29-5.16-9.942-6.87-1.632-.763-3.352-1.342-5.159-1.478-.058 0-.058.097 0 .097Z" fill="#597f6e" fill-rule="evenodd" data-name="Path 926"/><path d="M1143.028 579.88c1.033-5.477 2.367-10.82 4.434-16.008a78.493 78.493 0 0 1 7.748-14.627c6.183-9.168 14.28-17.051 23.66-22.916a74.639 74.639 0 0 1 8.154-4.424c2.85-1.324 5.787-2.358 8.734-3.46.28-.105.174-.53-.126-.453-2.666.686-5.284 1.749-7.796 2.87a74.622 74.622 0 0 0-7.468 3.844 78.4 78.4 0 0 0-13.39 9.97c-8.212 7.594-14.86 16.917-19.245 27.206-2.425 5.69-4.328 11.777-5.053 17.94-.029.204.31.252.348.059Z" fill="#597f6e" fill-rule="evenodd" data-name="Path 927"/><path d="M1158.727 495.462c5.169 10.782 8.25 23.467 5.864 35.379-.695 3.45-1.922 6.676-3.44 9.845-.134.29.262.54.436.25 3.265-5.322 4.473-11.92 4.492-18.094.02-6.28-1.179-12.53-3.178-18.472a68.068 68.068 0 0 0-3.836-9.13c-.106-.213-.444-.01-.338.222Z" fill="#597f6e" fill-rule="evenodd" data-name="Path 928"/><path d="M1167.577 570.49v11.323c0 44.885-11.816 57.647-11.816 57.647h-36.586s-11.816-12.762-11.816-57.647V570.49h60.218Z" fill="#f2f5f9" fill-rule="evenodd" data-name="Path 929"/><path d="m773.93 638.71 31.022-148.77" stroke-linejoin="round" stroke-linecap="round" stroke-width="1.5" stroke="#544943" fill="transparent" data-name="Path 930"/><path d="m835.983 638.71-31.031-148.77" stroke-linejoin="round" stroke-linecap="round" stroke-width="1.5" stroke="#544943" fill="transparent" data-name="Path 931"/><path d="m1087.306 638.71 31.032-148.77" stroke-linejoin="round" stroke-linecap="round" stroke-width="1.5" stroke="#544943" fill="transparent" data-name="Path 932"/><path d="m1149.36 638.71-31.022-148.77" stroke-linejoin="round" stroke-linecap="round" stroke-width="1.5" stroke="#544943" fill="transparent" data-name="Path 933"/><path d="M1146.303 481.782H775.685v8.898h370.618v-8.898Z" fill="#e7eaf2" fill-rule="evenodd" data-name="Path 934"/><path d="M1128.44 464.817H997.464a3.761 3.761 0 0 1-3.7-4.415l15.052-84.64a5.618 5.618 0 0 1 5.536-4.638h130.975a3.761 3.761 0 0 1 3.7 4.415l-15.052 84.641a5.625 5.625 0 0 1-5.535 4.637Z" fill="#475577" fill-rule="evenodd" data-name="Path 935"/><path d="M1131.483 464.817h-130.975a3.761 3.761 0 0 1-3.7-4.415l15.051-84.64a5.618 5.618 0 0 1 5.536-4.638h130.975a3.761 3.761 0 0 1 3.7 4.415l-15.051 84.641a5.625 5.625 0 0 1-5.536 4.637Z" fill="#c0ccd8" fill-rule="evenodd" data-name="Path 936"/><path d="M1107.388 464.817h-75.646a2.17 2.17 0 0 1-2.135-2.55l8.695-48.885a3.253 3.253 0 0 1 3.198-2.676h75.646a2.17 2.17 0 0 1 2.135 2.55l-8.695 48.885a3.243 3.243 0 0 1-3.198 2.676Z" fill="#8e9db2" fill-rule="evenodd" data-name="Path 937"/><path d="M1109.195 464.817h-75.647a2.17 2.17 0 0 1-2.135-2.55l8.695-48.885a3.253 3.253 0 0 1 3.198-2.676h75.646a2.17 2.17 0 0 1 2.135 2.55l-8.695 48.885a3.243 3.243 0 0 1-3.197 2.676Z" fill="#c6d2e0" fill-rule="evenodd" data-name="Path 938"/><path d="M1092.433 436.066h-30.703v28.751h30.703v-28.751Z" fill="#8e9db2" fill-rule="evenodd" data-name="Path 939"/><path d="M1090.674 436.066h-28.944v8.26l7.903 32.79h30.722l-9.68-41.05Zm-7.429 32.307c-3.44 0-7.082-4.01-8.125-8.966-1.043-4.946.899-8.965 4.338-8.965 3.44 0 7.081 4.009 8.125 8.965 1.043 4.956-.899 8.966-4.338 8.966Z" fill="#475577" fill-rule="evenodd" data-name="Path 940"/><path d="M1044.794 477.116h68.768v4.666h-73.444a4.684 4.684 0 0 1 4.676-4.666Z" fill="#475577" fill-rule="evenodd" data-name="Path 941"/><path d="M1113.571 477.116h-54.981v4.666h54.981v-4.666Z" fill="#c0ccd8" fill-rule="evenodd" data-name="Path 942"/><path d="M1092.452 436.066h-30.722l9.68 41.05h30.722l-9.68-41.05Zm-7.545 32.307c-3.44 0-7.082-4.01-8.125-8.966-1.044-4.946.898-8.965 4.338-8.965 3.439 0 7.081 4.009 8.125 8.965 1.043 4.947-.899 8.966-4.338 8.966Z" fill="#c0ccd8" fill-rule="evenodd" data-name="Path 943"/><g data-name="Group 597"><path d="m1020.719 379.462-1.826 10.24h1.826l1.816-10.24h-1.816Z" fill="#8e9db2" fill-rule="evenodd" data-name="Path 944"/><path d="m1025.984 379.462-1.826 10.24h1.826l1.816-10.24h-1.816Z" fill="#8e9db2" fill-rule="evenodd" data-name="Path 945"/><path d="m1031.25 379.462-1.827 10.24h1.826l1.816-10.24h-1.816Z" fill="#8e9db2" fill-rule="evenodd" data-name="Path 946"/><path d="m1036.514 379.462-1.825 10.24h1.825l1.817-10.24h-1.817Z" fill="#8e9db2" fill-rule="evenodd" data-name="Path 947"/><path d="m1041.78 379.462-1.826 10.24h1.826l1.816-10.24h-1.816Z" fill="#8e9db2" fill-rule="evenodd" data-name="Path 948"/></g><g data-name="Group 598"><path d="m1089.824 379.462-1.826 10.24h1.826l1.817-10.24h-1.817Z" fill="#8e9db2" fill-rule="evenodd" data-name="Path 949"/><path d="m1095.35 379.462-1.816 10.24h1.816l1.826-10.24h-1.826Z" fill="#8e9db2" fill-rule="evenodd" data-name="Path 950"/><path d="m1100.886 379.462-1.816 10.24h1.816l1.816-10.24h-1.816Z" fill="#8e9db2" fill-rule="evenodd" data-name="Path 951"/><path d="m1106.422 379.462-1.826 10.24h1.826l1.816-10.24h-1.816Z" fill="#8e9db2" fill-rule="evenodd" data-name="Path 952"/><path d="m1111.948 379.462-1.816 10.24h1.816l1.826-10.24h-1.826Z" fill="#8e9db2" fill-rule="evenodd" data-name="Path 953"/><path d="m1117.484 379.462-1.816 10.24h1.816l1.816-10.24h-1.816Z" fill="#8e9db2" fill-rule="evenodd" data-name="Path 954"/><path d="m1123.02 379.462-1.826 10.24h1.826l1.816-10.24h-1.816Z" fill="#8e9db2" fill-rule="evenodd" data-name="Path 955"/><path d="m1128.546 379.462-1.817 10.24h1.817l1.826-10.24h-1.826Z" fill="#8e9db2" fill-rule="evenodd" data-name="Path 956"/><path d="m1134.082 379.462-1.817 10.24h1.817l1.816-10.24h-1.816Z" fill="#8e9db2" fill-rule="evenodd" data-name="Path 957"/><path d="m1139.617 379.462-1.816 10.24h1.816l1.817-10.24h-1.817Z" fill="#8e9db2" fill-rule="evenodd" data-name="Path 958"/></g><g data-name="Group 599"><path d="M880.082 458.596s.85-.155 1.198-.638c.715-.995-.473-2.048-1.246-2.55-.995-.638-2.357-.85-2.84-2.068-.541-1.372.396-2.898 1.526-3.652.957-.628 2.077-.947 3.15-1.353 1.198-.444 2.405-1.169 3.1-2.29.87-1.4.696-3.197.812-4.772.445-6.164 6.753-9.226 12.057-9.352 2.657-.067 6.715.89 8.473 2.947.59.696 1.043 1.517 1.208 2.415.26 1.391-.28 2.676-1.179 3.71-.908 1.043-2.164 1.652-3.16 2.59-1.033.965-.299 1.99-.53 3.149-.261 1.285-1.121 1.835-2.242 2.454-2.357 1.314-5.13 1.642-7.69 2.357-.802.222-1.604.493-2.251 1.014-.84.677-1.314 1.681-1.942 2.55-1.16 1.576-2.908 2.706-4.82 3.092" fill="#fff" fill-rule="evenodd" data-name="Path 959"/></g><path d="M894.844 474.111h-5.033v-2.405h5.033a2.952 2.952 0 0 0 2.947-2.947v-4.135a2.952 2.952 0 0 0-2.947-2.947h-5.033v-2.405h5.033a5.348 5.348 0 0 1 5.343 5.342v4.135a5.346 5.346 0 0 1-5.343 5.362Z" fill="#e8eaef" fill-rule="evenodd" data-name="Path 960"/><path d="M887.676 480.44h-8.492a5.913 5.913 0 0 1-5.913-5.913V455.89h20.327v18.637c-.01 3.255-2.657 5.912-5.922 5.912Z" fill="#e8eaef" fill-rule="evenodd" data-name="Path 961"/><path d="M869.977 477.01s.193 4.782 7.622 4.782h11.652c7.429 0 7.622-4.782 7.622-4.782h-26.896Z" fill="#c6d2e0" fill-rule="evenodd" data-name="Path 962"/><path d="M1033.288 479.879H925.779v1.913h107.509v-1.913Z" fill="#475577" fill-rule="evenodd" data-name="Path 963"/><path d="M937.15 478.333h-7.7v1.546h7.7v-1.546Z" fill="#475577" fill-rule="evenodd" data-name="Path 964"/><path d="M948.811 478.333h-7.7v1.546h7.7v-1.546Z" fill="#475577" fill-rule="evenodd" data-name="Path 965"/><path d="M960.472 478.333h-7.7v1.546h7.7v-1.546Z" fill="#475577" fill-rule="evenodd" data-name="Path 966"/><path d="M972.133 478.333h-7.7v1.546h7.7v-1.546Z" fill="#475577" fill-rule="evenodd" data-name="Path 967"/><path d="M983.804 478.333h-7.7v1.546h7.7v-1.546Z" fill="#475577" fill-rule="evenodd" data-name="Path 968"/><path d="M995.464 478.333h-7.7v1.546h7.7v-1.546Z" fill="#475577" fill-rule="evenodd" data-name="Path 969"/><path d="M1007.125 478.333h-7.7v1.546h7.7v-1.546Z" fill="#475577" fill-rule="evenodd" data-name="Path 970"/><path d="M1018.786 478.333h-7.7v1.546h7.7v-1.546Z" fill="#475577" fill-rule="evenodd" data-name="Path 971"/><path d="M1030.447 478.333h-7.7v1.546h7.7v-1.546Z" fill="#475577" fill-rule="evenodd" data-name="Path 972"/><path d="M1034.688 479.879H927.18v1.913h107.508v-1.913Z" fill="#c0ccd8" fill-rule="evenodd" data-name="Path 973"/><path d="M938.56 478.333h-7.7v1.546h7.7v-1.546Z" fill="#c0ccd8" fill-rule="evenodd" data-name="Path 974"/><path d="M950.222 478.333h-7.7v1.546h7.7v-1.546Z" fill="#c0ccd8" fill-rule="evenodd" data-name="Path 975"/><path d="M961.883 478.333h-7.7v1.546h7.7v-1.546Z" fill="#c0ccd8" fill-rule="evenodd" data-name="Path 976"/><path d="M973.544 478.333h-7.7v1.546h7.7v-1.546Z" fill="#c0ccd8" fill-rule="evenodd" data-name="Path 977"/><path d="M985.204 478.333h-7.7v1.546h7.7v-1.546Z" fill="#c0ccd8" fill-rule="evenodd" data-name="Path 978"/><path d="M996.865 478.333h-7.7v1.546h7.7v-1.546Z" fill="#c0ccd8" fill-rule="evenodd" data-name="Path 979"/><path d="M1008.526 478.333h-7.7v1.546h7.7v-1.546Z" fill="#c0ccd8" fill-rule="evenodd" data-name="Path 980"/><path d="M1020.197 478.333h-7.7v1.546h7.7v-1.546Z" fill="#c0ccd8" fill-rule="evenodd" data-name="Path 981"/><path d="M1031.858 478.333h-7.7v1.546h7.7v-1.546Z" fill="#c0ccd8" fill-rule="evenodd" data-name="Path 982"/><path d="M774.206 553.902c1.334-5.304.744-11.072-1.642-15.989-2.386-4.917-6.55-8.956-11.545-11.178-2.038-.908-4.222-1.536-6.057-2.792a54.881 54.881 0 0 0-.493 7.96c.029 2.638.26 5.305 1.179 7.768 2.357 6.386 8.772 10.309 15.09 12.84" fill="#8ebca2" fill-rule="evenodd" data-name="Path 983"/><path d="M774.98 571.021c.125-4.85.048-9.767-.32-14.597-.164-2.126-.386-4.28-.927-6.357a37.535 37.535 0 0 0-2.773-7.333c-1.343-2.676-3.062-5.381-5.342-7.372-.155-.135-.367.068-.232.232 1.72 2.068 3.323 4.155 4.608 6.531 1.285 2.386 2.27 4.927 3.024 7.536 1.275 4.405 1.295 9.159 1.43 13.709.077 2.55.058 5.11.3 7.651.019.136.222.145.231 0Z" fill="#597f6e" fill-rule="evenodd" data-name="Path 984"/><path d="M759.184 587.223c-.928-7.333-4.995-14.211-10.975-18.559-2.947-2.145-6.338-3.652-9.893-4.473-2-.464-11.246.02-11.246.02s1.961 6.85 4.232 10.144c5.304 7.67 14.598 13.496 27.882 12.868Z" fill="#8ebca2" fill-rule="evenodd" data-name="Path 985"/><path d="M751.097 563.611a51.623 51.623 0 0 0-2.415-13.052c-.55-1.69-1.188-3.371-2.135-4.869-3.053-4.85-8.763-7.11-14.26-8.105-.068 4.675.464 9.593 3.043 13.438 1.14 1.7 2.628 3.11 4.126 4.473 2.975 2.705 8.434 5.7 11.641 8.115Z" fill="#a2ccb6" fill-rule="evenodd" data-name="Path 986"/><path d="M782.302 547.448c-.86-5.912-1.661-12.26 1.034-17.592.966-1.913 2.338-3.594 3.826-5.13 3.613-3.72 8.338-6.792 13.516-6.802.927 5.536-.193 11.39-3.111 16.192-2.908 4.811-9.922 11.613-15.265 13.332Z" fill="#a2ccb6" fill-rule="evenodd" data-name="Path 987"/><path d="M772.815 581.784c5.497 1.14 11.439-.087 16.038-3.314 4.598-3.227 7.767-8.395 8.57-13.95.038-.242.057-.532-.107-.715-.155-.174-.425-.194-.657-.194-9.516-.048-21.303 9.024-23.844 18.173Z" fill="#a2ccb6" fill-rule="evenodd" data-name="Path 988"/><path d="M753.27 560.414c7.826-4.406 12.86-13.236 13.005-22.82-5.652-.309-9.903 3.16-12.366 6.164-3.43 4.174-3.72 11.497-.638 16.656Z" fill="#a2ccb6" fill-rule="evenodd" data-name="Path 989"/><path d="M758.952 575.9c-2.087-5.207-1.43-11.429 1.7-16.085 3.13-4.657 8.647-7.613 14.26-7.633.232 0 .502.02.637.213.078.116.087.26.097.396.213 4.811-1.903 9.497-4.937 13.236-3.033 3.739-6.936 6.656-10.85 9.448" fill="#a2ccb6" fill-rule="evenodd" data-name="Path 990"/><path d="M790.882 533.7c-4 3.73-6.889 8.435-9.11 13.41-2.339 5.237-4.02 10.763-5.488 16.299-3.17 11.97-4.918 24.278-6.193 36.576-.715 6.976-1.382 14-1.642 21.004-.01.27.386.26.415 0 .734-6.145 1.14-12.338 1.739-18.501.59-6.126 1.285-12.241 2.203-18.318.908-6.019 2.029-12.009 3.478-17.93 1.381-5.672 2.985-11.324 5.12-16.763 2.241-5.72 5.275-11.226 9.68-15.583.126-.126-.067-.319-.202-.193Z" fill="#597f6e" fill-rule="evenodd" data-name="Path 991"/><path d="M758.942 584.18c.01-1.082-.097-2.164-.058-3.246.039-1.237.145-2.483.319-3.71.164-1.16.377-2.31.647-3.45.242-1.023.657-2.057.802-3.11.03-.193-.241-.213-.328-.087-.61.88-.85 2.097-1.102 3.12a36.868 36.868 0 0 0-.647 3.546 33.887 33.887 0 0 0-.29 3.7c-.029 1.082-.058 2.251.203 3.314.058.242.454.184.454-.077Z" fill="#597f6e" fill-rule="evenodd" data-name="Path 992"/><path d="M759.599 544.222c-2.338 2.038-3.758 5.014-4.724 7.922a32.01 32.01 0 0 0-1.594 11.13c.077 2.076.318 4.24 1.014 6.211.068.184.348.116.3-.087-.84-3.622-1.16-7.216-.754-10.926.386-3.507 1.304-7.043 2.927-10.183.754-1.459 1.691-2.86 2.899-3.99.048-.048-.02-.116-.068-.077Z" fill="#597f6e" fill-rule="evenodd" data-name="Path 993"/><path d="M761.879 611.405c.135-4.135-.213-8.318-.628-12.424a122.036 122.036 0 0 0-1.97-12.83c-1.807-8.608-4.6-17.1-8.88-24.81a63.322 63.322 0 0 0-3.873-6.154c-1.401-1.961-2.908-3.97-4.676-5.623-.223-.212-.512.097-.329.329 1.372 1.7 2.812 3.323 4.096 5.091a63.928 63.928 0 0 1 3.527 5.4c2.212 3.788 4.048 7.778 5.574 11.884 3.024 8.134 4.85 16.694 5.845 25.292.531 4.609.676 9.217.937 13.845.02.232.367.232.377 0Z" fill="#597f6e" fill-rule="evenodd" data-name="Path 994"/><path d="M793.838 592.411v7.72c0 30.615-10.154 39.32-10.154 39.32h-31.427s-10.154-8.705-10.154-39.32v-7.72h51.735Z" fill="#f2f5f9" fill-rule="evenodd" data-name="Path 995"/><path d="M723.848 638.46h493.15" stroke-linejoin="round" stroke-linecap="round" stroke-width="2" stroke="#475577" fill="transparent" data-name="Path 996"/></g></svg>